if (_typeface_js && _typeface_js.loadFace) _typeface_js.loadFace({"glyphs":{"0":{"ha":718,"x_min":27,"x_max":684,"o":"m 447 746 q 397 796 448 796 l 315 796 q 265 746 264 796 l 265 272 q 315 222 264 222 l 397 222 q 447 272 448 222 l 447 746 m 27 814 q 247 1034 27 1033 l 465 1034 q 684 814 684 1033 l 684 205 q 465 -16 684 -14 l 247 -16 q 27 205 27 -14 l 27 814 z "},"1":{"ha":537,"x_min":27,"x_max":503,"o":"m 269 -16 l 269 718 l 181 623 l 27 764 l 279 1034 l 503 1034 l 503 -16 l 269 -16 z "},"2":{"ha":720,"x_min":27,"x_max":686,"o":"m 686 566 q 465 357 684 359 l 315 357 q 266 316 267 358 l 266 219 l 683 219 l 683 -16 l 27 -16 q 28 8 27 5 l 28 387 q 248 595 35 594 l 397 595 q 448 638 446 595 l 448 746 q 397 796 449 796 l 316 796 q 266 753 267 796 l 266 662 l 28 661 l 28 826 q 248 1034 35 1033 l 466 1034 q 686 814 686 1033 l 686 566 z "},"3":{"ha":729,"x_min":27,"x_max":695,"o":"m 130 614 l 355 799 l 28 799 l 28 1034 l 688 1034 l 688 808 l 543 695 q 695 478 695 684 l 695 205 q 475 -16 695 -14 l 247 -16 q 27 205 27 -14 l 27 360 l 264 360 l 264 264 q 309 222 266 224 l 408 222 q 458 272 459 222 l 458 410 q 408 460 459 460 l 227 460 l 130 614 z "},"4":{"ha":743,"x_min":27,"x_max":709,"o":"m 475 -16 l 475 237 l 27 237 l 27 460 l 392 1057 l 603 953 l 309 472 l 475 472 l 475 703 l 709 703 l 709 -16 l 475 -16 z "},"5":{"ha":718,"x_min":27,"x_max":684,"o":"m 29 498 l 29 1034 l 681 1034 l 681 799 l 264 799 l 264 716 q 302 719 271 718 l 465 719 q 684 498 684 718 l 684 205 q 465 -16 684 -14 l 247 -16 q 27 205 27 -14 l 27 360 l 264 360 l 264 264 q 315 222 266 222 l 396 222 q 446 272 448 222 l 446 431 q 396 481 448 481 l 315 481 q 264 429 266 481 l 29 498 z "},"6":{"ha":718,"x_min":27,"x_max":684,"o":"m 447 669 l 447 746 q 397 796 448 796 l 315 796 q 265 746 264 796 l 265 632 l 465 632 q 684 412 684 631 l 684 205 q 465 -16 684 -14 l 247 -16 q 27 205 27 -14 l 27 814 q 247 1034 27 1033 l 465 1034 q 684 823 678 1033 l 684 669 l 447 669 m 315 222 l 397 222 q 447 262 444 222 l 447 352 q 397 395 446 395 l 265 395 l 265 272 q 315 222 264 222 z "},"7":{"ha":697,"x_min":16,"x_max":666,"o":"m 16 -16 l 390 798 l 17 798 l 17 1032 l 666 1032 l 665 806 l 276 -16 l 16 -16 z "},"8":{"ha":724,"x_min":27,"x_max":690,"o":"m 471 1034 q 690 814 690 1033 l 690 644 q 641 509 690 551 q 690 375 690 468 l 690 205 q 471 -16 690 -14 l 247 -16 q 27 205 27 -14 l 27 375 q 77 509 27 468 q 27 644 27 551 l 27 814 q 247 1034 27 1033 l 471 1034 m 453 272 l 453 307 q 406 391 454 389 l 312 391 q 264 307 263 389 l 264 272 q 315 222 263 222 l 403 222 q 453 272 454 222 m 406 633 q 453 711 454 634 l 453 746 q 403 796 454 796 l 309 796 q 264 746 263 793 l 264 711 q 315 633 263 633 l 406 633 z "},"9":{"ha":718,"x_min":27,"x_max":684,"o":"m 446 624 l 446 747 q 396 797 448 797 l 315 797 q 264 754 266 797 l 264 667 q 315 624 266 624 l 446 624 m 27 349 l 264 349 l 264 265 q 315 222 266 222 l 396 222 q 446 273 448 222 l 446 387 l 247 387 q 27 607 27 388 l 27 814 q 247 1034 27 1033 l 465 1034 q 684 814 684 1033 l 684 205 q 465 -16 684 -14 l 247 -16 q 27 193 34 -14 l 27 349 z "}," ":{"ha":345,"x_min":0,"x_max":0,"o":""},"!":{"ha":298,"x_min":27,"x_max":264,"o":"m 27 128 q 119 221 27 220 l 170 221 q 262 128 262 220 l 262 78 q 170 -15 262 -14 l 119 -15 q 27 78 27 -14 l 27 128 m 29 262 l 29 1034 l 264 1034 l 264 262 l 29 262 z "},"\"":{"ha":480,"x_min":27,"x_max":446,"o":"m 262 797 l 239 1105 l 446 1105 l 430 797 l 262 797 m 43 797 l 27 1105 l 234 1105 l 212 797 l 43 797 z "},"#":{"ha":1063,"x_min":39,"x_max":1000,"o":"m 917 235 l 709 235 l 601 -44 l 378 57 l 448 235 l 374 235 l 267 -36 l 43 47 l 117 235 l 39 235 l 39 470 l 208 470 l 236 544 l 128 544 l 128 779 l 327 779 l 433 1050 l 656 949 l 588 779 l 662 779 l 766 1042 l 989 960 l 919 779 l 1000 779 l 1000 544 l 829 544 l 800 470 l 917 470 l 917 235 m 466 470 l 541 470 l 570 544 l 495 544 l 466 470 z "},"$":{"ha":719,"x_min":27,"x_max":685,"o":"m 685 205 q 465 -16 685 -14 l 465 -16 l 465 -149 l 231 -149 l 231 -16 q 28 205 28 -14 l 28 362 l 265 361 l 265 264 q 315 222 267 222 l 397 222 q 447 272 448 222 l 447 350 q 397 391 446 392 l 248 391 q 27 600 29 393 l 27 814 q 247 1034 27 1033 l 231 1034 l 231 1168 l 465 1168 l 465 1034 l 465 1034 q 684 826 677 1033 l 684 670 l 447 669 l 447 753 q 397 796 446 796 l 315 796 q 265 746 264 796 l 265 672 q 315 629 267 629 l 465 629 q 685 421 678 628 l 685 205 z "},"%":{"ha":996,"x_min":27,"x_max":962,"o":"m 125 64 l 642 1040 l 844 908 l 336 -39 l 125 64 m 523 254 q 691 422 523 422 l 793 422 q 962 254 962 422 l 962 152 q 793 -17 962 -16 l 691 -17 q 523 152 523 -16 l 523 254 m 27 865 q 195 1034 27 1034 l 298 1034 q 466 865 466 1034 l 466 764 q 298 595 466 596 l 195 595 q 27 764 27 596 l 27 865 m 776 203 q 743 236 777 236 q 709 203 709 236 l 709 202 q 743 169 709 169 q 776 202 777 169 l 776 203 m 280 814 q 247 848 281 848 q 214 814 213 848 l 214 814 q 247 781 213 781 q 280 814 281 781 l 280 814 z "},"&":{"ha":729,"x_min":27,"x_max":695,"o":"m 468 1170 l 468 1034 l 694 1034 l 694 799 l 366 799 l 592 614 l 496 460 l 315 460 q 264 410 263 460 l 264 272 q 315 222 263 222 l 408 222 q 458 264 456 222 l 458 360 l 695 360 l 695 205 q 475 -16 695 -14 l 468 -16 l 468 -149 l 233 -149 l 233 -16 l 247 -16 q 27 205 27 -14 l 27 478 q 179 695 27 684 l 35 808 l 35 1034 l 233 1034 l 233 1170 l 468 1170 z "},"'":{"ha":341,"x_min":27,"x_max":307,"o":"m 27 779 l 108 1128 l 307 1072 l 187 736 l 27 779 z "},"(":{"ha":502,"x_min":27,"x_max":468,"o":"m 468 -218 l 247 -218 q 27 2 27 -217 l 27 1018 q 247 1238 27 1237 l 468 1238 l 468 1000 l 315 1000 q 264 950 263 1000 l 264 69 q 315 19 263 19 l 468 19 l 468 -218 z "},")":{"ha":502,"x_min":27,"x_max":468,"o":"m 27 19 l 180 19 q 231 69 232 19 l 231 950 q 180 1000 232 1000 l 27 1000 l 27 1238 l 248 1238 q 468 1018 468 1237 l 468 2 q 248 -218 468 -217 l 27 -218 l 27 19 z "},"*":{"ha":678,"x_min":27,"x_max":644,"o":"m 227 1169 q 431 1169 300 1166 l 431 1040 l 541 1105 q 644 930 604 991 l 487 836 l 581 720 q 422 593 477 642 l 336 701 l 249 593 q 90 720 194 642 l 184 836 l 27 930 q 131 1105 67 991 l 227 1048 l 227 1169 z "},"+":{"ha":626,"x_min":27,"x_max":592,"o":"m 192 382 l 27 382 l 27 616 l 192 616 l 192 782 l 427 782 l 427 617 l 592 617 l 592 382 l 427 382 l 427 218 l 192 217 l 192 382 z "},",":{"ha":341,"x_min":27,"x_max":307,"o":"m 27 -110 l 108 239 l 307 184 l 187 -152 l 27 -110 z "},"-":{"ha":505,"x_min":27,"x_max":471,"o":"m 471 616 l 471 379 l 27 379 l 27 616 l 471 616 z "},".":{"ha":296,"x_min":27,"x_max":262,"o":"m 27 128 q 119 221 27 220 l 170 221 q 262 128 262 220 l 262 78 q 170 -15 262 -14 l 119 -15 q 27 78 27 -14 l 27 128 z "},"/":{"ha":945,"x_min":27,"x_max":911,"o":"m 27 -64 l 705 1190 l 911 1078 l 233 -176 l 27 -64 z "},":":{"ha":296,"x_min":27,"x_max":262,"o":"m 27 128 q 119 221 27 220 l 170 221 q 262 128 262 220 l 262 78 q 170 -15 262 -14 l 119 -15 q 27 78 27 -14 l 27 128 m 27 465 q 119 558 27 557 l 170 558 q 262 465 262 557 l 262 415 q 170 322 262 323 l 119 322 q 27 415 27 323 l 27 465 z "},";":{"ha":341,"x_min":27,"x_max":307,"o":"m 62 465 q 154 558 62 557 l 205 558 q 297 465 297 557 l 297 415 q 205 322 297 323 l 154 322 q 62 415 62 323 l 62 465 m 27 -110 l 108 239 l 307 184 l 187 -152 l 27 -110 z "},"<":{"ha":770,"x_min":27,"x_max":736,"o":"m 732 834 l 256 504 l 736 197 l 623 -24 l 27 402 l 27 618 l 602 1035 l 732 834 z "},"=":{"ha":505,"x_min":27,"x_max":471,"o":"m 471 766 l 471 540 l 27 540 l 27 766 l 471 766 m 471 509 l 471 282 l 27 282 l 27 509 l 471 509 z "},">":{"ha":770,"x_min":27,"x_max":736,"o":"m 161 1035 l 736 618 l 736 402 l 139 -24 l 27 197 l 507 504 l 30 834 l 161 1035 z "},"?":{"ha":718,"x_min":27,"x_max":684,"o":"m 227 128 q 319 221 227 220 l 370 221 q 463 128 463 220 l 463 78 q 370 -15 463 -14 l 319 -15 q 227 78 227 -14 l 227 128 m 446 746 q 396 796 448 796 l 315 796 q 264 753 266 796 l 264 669 l 27 669 l 27 826 q 247 1034 34 1033 l 465 1034 q 684 814 684 1033 l 684 600 q 509 391 682 393 q 458 350 460 392 l 458 264 l 220 264 l 220 421 q 441 629 227 628 q 446 672 445 629 l 446 746 z "},"@":{"ha":686,"x_min":27,"x_max":652,"o":"m 652 119 l 193 119 q 27 286 27 121 l 27 735 q 193 902 27 901 l 485 902 q 651 735 651 901 l 651 317 l 365 317 q 237 446 237 317 l 237 570 q 365 699 237 698 l 467 699 q 435 718 466 718 l 244 718 q 212 685 211 718 l 212 336 q 244 303 211 303 l 652 303 l 652 119 m 467 536 q 448 553 467 553 l 403 553 q 382 532 382 553 l 382 482 q 403 463 382 463 l 448 463 q 467 478 467 463 l 467 536 z "},"A":{"ha":926,"x_min":3,"x_max":911,"o":"m 3 -13 l 338 1034 l 575 1034 l 911 -13 l 664 -13 l 620 123 l 293 123 l 250 -13 l 3 -13 m 456 633 l 359 329 l 554 329 l 456 633 z "},"B":{"ha":725,"x_min":27,"x_max":691,"o":"m 27 1034 l 471 1034 q 691 814 691 1033 l 691 644 q 641 509 691 550 q 691 375 691 468 l 691 205 q 471 -16 691 -14 l 27 -16 l 27 1034 m 454 307 q 404 391 455 391 l 265 391 l 265 222 l 404 222 q 454 272 455 222 l 454 307 m 454 746 q 404 796 455 796 l 265 796 l 265 633 l 404 633 q 454 711 455 633 l 454 746 z "},"C":{"ha":718,"x_min":27,"x_max":684,"o":"m 447 669 l 447 755 q 397 796 444 796 l 315 796 q 265 746 264 796 l 265 272 q 315 222 264 222 l 397 222 q 447 272 448 222 l 447 361 l 684 361 l 684 205 q 465 -16 684 -14 l 247 -16 q 27 205 27 -14 l 27 814 q 247 1034 27 1033 l 465 1034 q 684 826 677 1033 l 684 823 l 684 814 l 684 669 l 447 669 z "},"D":{"ha":718,"x_min":27,"x_max":684,"o":"m 447 746 q 397 796 448 796 l 265 796 l 265 222 l 397 222 q 447 272 448 222 l 447 746 m 27 1034 l 465 1034 q 684 814 684 1033 l 684 205 q 465 -16 684 -14 l 27 -16 l 27 1034 z "},"E":{"ha":709,"x_min":27,"x_max":675,"o":"m 27 -16 l 27 1034 l 675 1034 l 675 800 l 262 800 l 262 627 l 552 627 l 552 393 l 262 393 l 262 218 l 675 218 l 675 -16 l 27 -16 z "},"F":{"ha":709,"x_min":27,"x_max":675,"o":"m 27 -17 l 27 1034 l 675 1034 l 675 800 l 262 800 l 262 627 l 552 627 l 552 393 l 262 393 l 262 -17 l 27 -17 z "},"G":{"ha":725,"x_min":27,"x_max":691,"o":"m 321 619 l 691 619 l 691 205 q 471 -16 691 -14 l 247 -16 q 27 205 27 -14 l 27 814 q 247 1034 27 1033 l 471 1034 q 691 826 684 1033 l 691 683 l 454 683 l 454 753 q 404 796 452 796 l 315 796 q 265 746 264 796 l 265 272 q 315 222 264 222 l 404 222 q 454 264 452 222 l 454 389 l 321 389 l 321 619 z "},"H":{"ha":742,"x_min":27,"x_max":708,"o":"m 473 -16 l 473 399 l 262 398 l 262 -16 l 27 -16 l 27 1034 l 262 1034 l 262 627 l 473 627 l 473 1034 l 708 1034 l 708 -16 l 473 -16 z "},"I":{"ha":296,"x_min":27,"x_max":262,"o":"m 27 -16 l 27 1034 l 262 1034 l 262 -16 l 27 -16 z "},"J":{"ha":705,"x_min":27,"x_max":671,"o":"m 433 272 l 433 1040 l 671 1040 l 671 205 q 451 -16 671 -14 l 247 -16 q 29 162 41 -14 l 27 162 l 27 558 l 265 558 l 265 262 q 315 222 267 222 l 383 222 q 433 272 435 222 z "},"K":{"ha":763,"x_min":27,"x_max":751,"o":"m 467 -19 l 280 300 l 279 300 l 279 -16 l 27 -16 l 27 1034 l 279 1034 l 279 682 l 472 1031 l 747 1031 l 437 492 l 751 -19 l 467 -19 z "},"L":{"ha":669,"x_min":27,"x_max":635,"o":"m 27 -16 l 27 1034 l 262 1034 l 262 218 l 634 218 l 635 -16 l 27 -16 z "},"M":{"ha":992,"x_min":27,"x_max":958,"o":"m 264 1030 l 493 557 l 721 1030 l 958 1030 l 958 -20 l 726 -20 l 726 459 l 495 -19 l 264 460 l 264 -20 l 27 -20 l 27 1030 l 264 1030 z "},"N":{"ha":813,"x_min":27,"x_max":779,"o":"m 263 1038 l 545 500 l 545 1038 l 779 1038 l 779 -17 l 551 -17 l 262 535 l 262 -17 l 27 -17 l 27 1038 l 263 1038 z "},"O":{"ha":718,"x_min":27,"x_max":684,"o":"m 447 746 q 397 796 448 796 l 315 796 q 265 746 264 796 l 265 272 q 315 222 264 222 l 397 222 q 447 272 448 222 l 447 746 m 27 814 q 247 1034 27 1033 l 465 1034 q 684 814 684 1033 l 684 205 q 465 -16 684 -14 l 247 -16 q 27 205 27 -14 l 27 814 z "},"P":{"ha":718,"x_min":27,"x_max":684,"o":"m 27 -16 l 27 1034 l 465 1034 q 684 814 684 1033 l 684 546 q 465 326 684 327 l 264 326 l 264 -16 l 27 -16 m 447 746 q 397 796 448 796 l 265 796 l 265 535 l 397 535 q 447 613 448 535 l 447 746 z "},"Q":{"ha":768,"x_min":27,"x_max":694,"o":"m 428 -16 l 247 -16 q 27 205 27 -14 l 27 814 q 247 1034 27 1033 l 465 1034 q 684 814 684 1033 l 684 205 q 644 58 684 104 l 694 -20 l 512 -147 l 428 -16 m 447 746 q 397 796 448 796 l 315 796 q 265 746 264 796 l 265 272 q 315 222 264 222 l 397 222 q 447 272 448 222 l 447 746 z "},"R":{"ha":740,"x_min":27,"x_max":705,"o":"m 442 -22 l 264 326 l 264 -21 l 29 -21 l 29 326 l 27 326 l 27 1034 l 465 1034 q 684 814 684 1033 l 684 546 q 533 336 684 361 l 705 -22 l 442 -22 m 447 746 q 397 796 448 796 l 265 796 l 265 535 l 397 535 q 447 613 448 535 l 447 746 z "},"S":{"ha":719,"x_min":27,"x_max":685,"o":"m 465 627 q 685 419 683 625 l 685 205 q 465 -16 685 -14 l 248 -16 q 28 193 35 -14 l 28 342 l 265 342 l 265 265 q 315 222 267 222 l 397 222 q 447 273 448 222 l 447 347 q 397 389 446 389 l 247 389 q 27 597 34 391 l 27 814 q 247 1034 27 1033 l 465 1034 q 684 814 684 1033 l 684 677 l 447 677 l 447 754 q 397 797 446 797 l 315 797 q 265 747 264 797 l 265 669 q 315 627 267 627 l 465 627 z "},"T":{"ha":776,"x_min":27,"x_max":742,"o":"m 271 -16 l 271 799 l 27 799 l 27 1034 l 742 1034 l 742 799 l 505 799 l 505 -16 l 271 -16 z "},"U":{"ha":718,"x_min":27,"x_max":684,"o":"m 684 1031 l 684 205 q 465 -16 684 -14 l 247 -16 q 27 205 27 -14 l 27 1031 l 265 1031 l 265 272 q 315 222 264 222 l 397 222 q 447 272 448 222 l 447 1031 l 684 1031 z "},"V":{"ha":941,"x_min":3,"x_max":927,"o":"m 250 1034 l 465 376 l 680 1034 l 927 1034 l 583 -16 l 346 -16 l 3 1034 l 250 1034 z "},"W":{"ha":1078,"x_min":9,"x_max":1055,"o":"m 265 1034 l 353 494 l 532 1023 l 711 494 l 799 1034 l 1055 1034 l 884 -16 l 629 -16 l 532 271 l 435 -16 l 180 -16 l 9 1034 l 265 1034 z "},"X":{"ha":841,"x_min":5,"x_max":819,"o":"m 558 509 l 819 -16 l 528 -16 l 412 217 l 296 -16 l 5 -16 l 267 509 l 5 1034 l 296 1034 l 412 801 l 528 1034 l 819 1034 l 558 509 z "},"Y":{"ha":851,"x_min":1,"x_max":837,"o":"m 277 1034 l 418 738 l 559 1034 l 837 1034 l 534 461 l 534 -16 l 300 -16 l 300 460 l 1 1034 l 277 1034 z "},"Z":{"ha":839,"x_min":27,"x_max":805,"o":"m 336 223 l 800 223 l 801 -12 l 27 -12 l 27 212 l 492 800 l 31 800 l 31 1035 l 805 1035 l 804 815 l 336 223 z "},"[":{"ha":502,"x_min":27,"x_max":468,"o":"m 468 1000 l 265 1000 l 265 17 l 468 17 l 468 -220 l 27 -220 l 27 1238 l 468 1238 l 468 1000 z "},"\\":{"ha":945,"x_min":27,"x_max":911,"o":"m 705 -176 l 27 1078 l 233 1190 l 911 -64 l 705 -176 z "},"]":{"ha":502,"x_min":27,"x_max":468,"o":"m 27 1238 l 468 1238 l 468 -220 l 27 -220 l 27 17 l 230 17 l 230 1000 l 27 1000 l 27 1238 z "},"^":{"ha":561,"x_min":27,"x_max":527,"o":"m 277 870 l 92 785 l 27 935 l 277 1054 l 527 935 l 462 785 l 277 870 z "},"_":{"ha":963,"x_min":27,"x_max":929,"o":"m 929 154 l 929 -82 l 27 -82 l 27 154 l 929 154 z "},"`":{"ha":454,"x_min":27,"x_max":420,"o":"m 27 945 l 349 1083 l 420 890 l 97 769 l 27 945 z "},"a":{"ha":625,"x_min":0,"x_max":0,"o":""},"b":{"ha":675,"x_min":0,"x_max":0,"o":""},"c":{"ha":614,"x_min":0,"x_max":0,"o":""},"d":{"ha":705,"x_min":0,"x_max":0,"o":""},"e":{"ha":616,"x_min":0,"x_max":0,"o":""},"f":{"ha":379,"x_min":0,"x_max":0,"o":""},"g":{"ha":610,"x_min":0,"x_max":0,"o":""},"h":{"ha":749,"x_min":0,"x_max":0,"o":""},"i":{"ha":349,"x_min":0,"x_max":0,"o":""},"j":{"ha":346,"x_min":0,"x_max":0,"o":""},"k":{"ha":696,"x_min":0,"x_max":0,"o":""},"l":{"ha":354,"x_min":0,"x_max":0,"o":""},"m":{"ha":1064,"x_min":0,"x_max":0,"o":""},"n":{"ha":751,"x_min":0,"x_max":0,"o":""},"o":{"ha":685,"x_min":0,"x_max":0,"o":""},"p":{"ha":685,"x_min":0,"x_max":0,"o":""},"q":{"ha":694,"x_min":0,"x_max":0,"o":""},"r":{"ha":469,"x_min":0,"x_max":0,"o":""},"s":{"ha":476,"x_min":0,"x_max":0,"o":""},"t":{"ha":457,"x_min":0,"x_max":0,"o":""},"u":{"ha":718,"x_min":0,"x_max":0,"o":""},"v":{"ha":673,"x_min":0,"x_max":0,"o":""},"w":{"ha":960,"x_min":0,"x_max":0,"o":""},"x":{"ha":685,"x_min":0,"x_max":0,"o":""},"y":{"ha":589,"x_min":0,"x_max":0,"o":""},"z":{"ha":493,"x_min":0,"x_max":0,"o":""},"{":{"ha":650,"x_min":27,"x_max":616,"o":"m 27 626 l 125 626 q 175 676 176 626 l 175 1018 q 395 1238 175 1237 l 616 1238 l 616 1000 l 463 1000 q 412 950 411 1000 l 412 705 q 309 507 412 555 q 412 309 412 459 l 412 64 q 463 14 411 14 l 616 14 l 616 -224 l 395 -224 q 175 -4 175 -223 l 175 338 q 125 388 176 388 l 27 388 l 27 626 z "},"|":{"ha":296,"x_min":27,"x_max":262,"o":"m 27 -205 l 27 1219 l 262 1219 l 262 -205 l 27 -205 z "},"}":{"ha":650,"x_min":27,"x_max":616,"o":"m 616 388 l 518 388 q 468 338 467 388 l 468 -4 q 248 -224 468 -223 l 27 -224 l 27 14 l 180 14 q 231 64 232 14 l 231 309 q 334 507 231 459 q 231 705 231 555 l 231 950 q 180 1000 232 1000 l 27 1000 l 27 1238 l 248 1238 q 468 1018 468 1237 l 468 676 q 518 626 467 626 l 616 626 l 616 388 z "},"~":{"ha":650,"x_min":27,"x_max":616,"o":"m 471 517 l 471 648 q 450 667 471 668 l 411 667 q 395 648 395 667 l 395 646 q 273 519 394 523 l 155 519 q 27 646 28 519 l 27 809 l 172 810 l 172 684 q 192 664 172 663 l 234 664 q 250 684 250 665 l 250 684 q 371 812 250 811 l 488 812 q 616 685 615 812 l 616 517 l 471 517 z "},"¡":{"ha":298,"x_min":27,"x_max":264,"o":"m 264 891 q 172 798 264 799 l 121 798 q 28 891 28 799 l 28 941 q 121 1034 28 1034 l 172 1034 q 264 941 264 1034 l 264 891 m 262 757 l 262 -15 l 27 -15 l 27 757 l 262 757 z "},"¢":{"ha":718,"x_min":27,"x_max":684,"o":"m 210 -109 l 220 -15 q 27 205 27 -10 l 27 541 q 247 762 27 760 l 307 762 l 321 881 l 508 852 l 497 760 q 684 553 677 753 l 684 451 l 447 451 l 447 481 q 464 477 446 498 l 435 227 q 447 264 446 228 l 447 300 l 684 300 l 684 205 q 465 -16 684 -14 l 406 -16 l 394 -124 l 210 -109 m 265 473 l 265 272 q 251 258 264 245 l 281 519 q 265 473 264 517 z "},"£":{"ha":808,"x_min":27,"x_max":774,"o":"m 105 -16 l 105 269 l 27 269 l 27 504 l 105 504 l 105 628 l 103 628 l 103 814 q 323 1034 103 1033 l 541 1034 q 760 826 753 1033 l 760 669 l 523 669 l 523 753 q 473 796 522 796 l 391 796 q 341 746 340 796 l 341 628 l 340 628 l 340 505 l 488 505 l 487 267 l 340 267 l 340 218 l 773 218 l 774 -16 l 105 -16 z "},"¤":{"ha":811,"x_min":27,"x_max":777,"o":"m 148 585 q 151 632 148 616 l 27 739 l 168 888 l 290 774 q 340 779 308 778 l 459 779 q 516 773 496 778 l 621 895 l 770 755 l 650 625 q 652 585 652 611 l 652 467 q 646 405 652 427 l 777 294 l 636 144 l 495 275 q 459 273 483 273 l 340 273 q 301 275 315 273 l 184 138 l 34 278 l 153 406 q 148 467 148 429 l 148 585 m 441 526 q 400 568 443 568 q 359 526 357 568 l 359 526 q 400 484 357 484 q 441 526 443 484 l 441 526 z "},"¥":{"ha":873,"x_min":27,"x_max":840,"o":"m 673 485 l 673 252 l 550 252 l 550 -18 q 315 -17 463 -9 l 315 252 l 195 252 l 195 485 l 300 485 l 27 939 l 234 1048 l 433 738 l 633 1048 l 840 939 l 564 485 l 673 485 z "},"¦":{"ha":296,"x_min":27,"x_max":262,"o":"m 27 524 l 27 1034 l 262 1034 l 262 524 l 27 524 m 27 -16 l 27 494 l 262 494 l 262 -16 l 27 -16 z "},"§":{"ha":719,"x_min":27,"x_max":685,"o":"m 685 -12 q 465 -232 685 -231 l 248 -232 q 28 -12 28 -231 l 28 144 l 265 145 l 265 48 q 315 5 267 5 l 397 5 q 447 56 448 5 l 447 133 q 418 173 446 168 l 248 173 q 91 222 145 174 q 27 383 28 275 l 27 597 q 43 697 27 659 q 27 788 28 732 l 27 1002 q 247 1223 27 1221 l 465 1223 q 684 1015 677 1221 l 684 859 l 447 858 l 447 942 q 397 985 446 985 l 315 985 q 265 935 264 985 l 265 861 q 315 818 267 818 l 465 818 q 685 610 678 817 l 685 393 q 669 293 685 331 q 685 205 683 259 l 685 -12 m 265 454 q 315 413 268 413 l 419 413 q 447 460 448 420 l 447 537 q 397 580 446 579 l 315 580 q 265 533 264 580 l 265 454 z "},"¨":{"ha":568,"x_min":27,"x_max":534,"o":"m 27 923 q 119 1016 27 1015 l 170 1016 q 262 923 262 1015 l 262 873 q 170 780 262 781 l 119 780 q 27 873 27 781 l 27 923 m 299 923 q 391 1016 299 1015 l 442 1016 q 534 923 534 1015 l 534 873 q 442 780 534 781 l 391 780 q 299 873 299 781 l 299 923 z "},"©":{"ha":814,"x_min":27,"x_max":780,"o":"m 596 685 q 564 718 597 718 l 244 718 q 212 685 211 718 l 212 336 q 244 303 211 303 l 564 303 q 596 336 597 303 l 596 685 m 27 735 q 193 902 27 901 l 614 902 q 780 735 780 901 l 780 286 q 614 119 780 121 l 193 119 q 27 286 27 121 l 27 735 m 572 513 l 441 513 l 441 541 q 426 553 440 553 l 387 553 q 372 538 372 553 l 372 476 q 387 461 372 461 l 426 461 q 441 472 440 461 l 441 500 l 572 500 l 572 444 q 458 330 572 331 l 355 330 q 241 444 241 331 l 241 570 q 355 684 241 684 l 458 684 q 572 576 568 684 l 572 513 z "},"ª":{"ha":439,"x_min":0,"x_max":0,"o":""},"®":{"ha":814,"x_min":27,"x_max":780,"o":"m 27 735 q 193 902 27 901 l 614 902 q 780 735 780 901 l 780 286 q 614 119 780 121 l 193 119 q 27 286 27 121 l 27 735 m 596 685 q 564 718 597 718 l 244 718 q 212 685 211 718 l 212 336 q 244 303 211 303 l 564 303 q 596 336 597 303 l 596 685 m 469 300 l 400 412 l 384 412 l 384 323 l 259 323 l 259 412 l 258 412 l 258 691 l 465 691 q 574 582 574 690 l 574 521 q 536 429 574 444 l 576 365 l 469 300 m 448 551 q 435 565 448 565 l 384 565 l 384 525 l 435 525 q 448 551 448 525 z "},"¯":{"ha":454,"x_min":0,"x_max":0,"o":""},"°":{"ha":500,"x_min":27,"x_max":466,"o":"m 27 1057 q 195 1226 27 1225 l 298 1226 q 466 1057 466 1225 l 466 956 q 298 787 466 788 l 195 787 q 27 956 27 788 l 27 1057 m 280 1006 q 247 1040 281 1040 q 214 1006 213 1040 l 214 1006 q 247 972 213 972 q 280 1006 281 972 l 280 1006 z "},"²":{"ha":688,"x_min":0,"x_max":0,"o":""},"³":{"ha":688,"x_min":0,"x_max":0,"o":""},"´":{"ha":454,"x_min":27,"x_max":420,"o":"m 351 773 l 27 895 l 99 1087 l 420 949 l 351 773 z "},"µ":{"ha":718,"x_min":27,"x_max":684,"o":"m 265 267 q 315 222 267 222 l 397 222 q 447 272 448 222 l 447 1031 l 684 1031 l 684 205 q 465 -16 684 -14 l 265 -16 l 265 -137 l 27 -137 l 27 1031 l 265 1031 l 265 267 z "},"¶":{"ha":705,"x_min":27,"x_max":691,"o":"m 371 1034 l 691 1034 l 691 911 l 593 911 l 593 -16 l 471 -16 l 471 911 l 371 911 l 371 -16 l 248 -16 l 248 663 l 142 663 q 27 779 27 664 l 27 919 q 142 1034 27 1034 l 371 1034 l 371 1034 z "},"·":{"ha":296,"x_min":27,"x_max":262,"o":"m 27 534 q 119 627 27 626 l 170 627 q 262 534 262 626 l 262 484 q 170 391 262 391 l 119 391 q 27 484 27 391 l 27 534 z "},"¸":{"ha":408,"x_min":27,"x_max":374,"o":"m 226 -165 q 229 -147 225 -147 q 98 -22 102 -132 l 98 75 q 248 73 155 70 l 248 18 q 269 2 248 1 q 374 -123 374 1 l 374 -203 q 243 -334 374 -334 l 159 -334 q 27 -210 31 -334 l 27 -140 l 176 -141 l 176 -168 q 197 -185 176 -185 l 205 -185 q 226 -165 227 -185 z "},"¹":{"ha":688,"x_min":0,"x_max":0,"o":""},"º":{"ha":500,"x_min":27,"x_max":466,"o":"m 27 865 q 195 1034 27 1034 l 298 1034 q 466 865 466 1034 l 466 764 q 298 595 466 596 l 195 595 q 27 764 27 596 l 27 865 m 280 814 q 247 848 281 848 q 214 814 213 848 l 214 814 q 247 781 213 781 q 280 814 281 781 l 280 814 z "},"¼":{"ha":1158,"x_min":0,"x_max":0,"o":""},"½":{"ha":1332,"x_min":0,"x_max":0,"o":""},"¾":{"ha":1158,"x_min":0,"x_max":0,"o":""},"¿":{"ha":718,"x_min":27,"x_max":684,"o":"m 484 891 q 392 798 484 799 l 341 798 q 249 891 249 799 l 249 941 q 341 1034 249 1034 l 392 1034 q 484 941 484 1034 l 484 891 m 265 273 q 315 223 264 223 l 397 223 q 447 266 446 223 l 447 342 l 684 341 l 684 193 q 465 -15 677 -14 l 247 -15 q 27 205 27 -14 l 27 420 q 202 628 29 626 q 253 669 252 627 l 253 755 l 491 755 l 491 598 q 270 390 484 391 q 265 347 267 390 l 265 273 z "},"Ç":{"ha":718,"x_min":27,"x_max":684,"o":"m 395 -181 q 400 -168 394 -168 q 282 -56 286 -154 l 282 -16 l 247 -16 q 27 205 27 -14 l 27 814 q 247 1034 27 1033 l 465 1034 q 684 826 677 1033 l 684 823 l 684 814 l 684 669 l 447 669 l 447 755 q 397 796 444 796 l 315 796 q 265 746 264 796 l 265 272 q 315 222 264 222 l 397 222 q 447 272 448 222 l 447 361 l 684 361 l 684 205 q 465 -16 684 -14 l 418 -16 l 418 -20 q 434 -33 418 -33 q 530 -144 528 -33 l 530 -214 q 412 -332 530 -332 l 337 -332 q 220 -220 223 -332 l 220 -139 l 355 -134 l 355 -184 q 371 -197 355 -197 l 378 -197 q 395 -181 395 -197 z "},"×":{"ha":631,"x_min":27,"x_max":597,"o":"m 146 503 l 27 616 l 191 785 l 309 671 l 424 789 l 593 627 l 477 508 l 597 393 l 428 229 l 314 340 l 199 220 l 36 389 l 146 503 z "},"Þ":{"ha":720,"x_min":27,"x_max":684,"o":"m 447 578 q 397 629 448 629 l 265 629 l 265 368 l 397 368 q 447 446 448 368 l 447 578 m 264 867 l 465 867 q 684 646 684 865 l 684 378 q 465 158 684 159 l 264 158 l 264 -16 l 27 -16 l 27 1040 l 264 1040 l 264 867 z "},"ß":{"ha":725,"x_min":27,"x_max":691,"o":"m 336 222 l 404 222 q 454 272 455 222 l 454 307 q 404 391 455 391 l 336 391 l 336 633 l 404 633 q 454 711 455 633 l 454 746 q 404 796 455 796 l 265 796 l 265 -16 l 27 -16 l 27 1034 l 471 1034 q 691 814 691 1033 l 691 644 q 641 509 691 550 q 691 375 691 468 l 691 205 q 471 -16 691 -14 l 336 -16 l 336 222 z "},"à":{"ha":625,"x_min":0,"x_max":0,"o":""},"á":{"ha":625,"x_min":0,"x_max":0,"o":""},"â":{"ha":625,"x_min":0,"x_max":0,"o":""},"ã":{"ha":625,"x_min":0,"x_max":0,"o":""},"ä":{"ha":625,"x_min":0,"x_max":0,"o":""},"å":{"ha":625,"x_min":0,"x_max":0,"o":""},"æ":{"ha":986,"x_min":0,"x_max":0,"o":""},"ç":{"ha":614,"x_min":0,"x_max":0,"o":""},"è":{"ha":616,"x_min":0,"x_max":0,"o":""},"é":{"ha":616,"x_min":0,"x_max":0,"o":""},"ê":{"ha":616,"x_min":0,"x_max":0,"o":""},"ë":{"ha":616,"x_min":0,"x_max":0,"o":""},"ì":{"ha":349,"x_min":0,"x_max":0,"o":""},"í":{"ha":349,"x_min":0,"x_max":0,"o":""},"î":{"ha":349,"x_min":0,"x_max":0,"o":""},"ï":{"ha":349,"x_min":0,"x_max":0,"o":""},"ð":{"ha":772,"x_min":0,"x_max":0,"o":""},"ñ":{"ha":751,"x_min":0,"x_max":0,"o":""},"ò":{"ha":685,"x_min":0,"x_max":0,"o":""},"ó":{"ha":685,"x_min":0,"x_max":0,"o":""},"ô":{"ha":685,"x_min":0,"x_max":0,"o":""},"õ":{"ha":685,"x_min":0,"x_max":0,"o":""},"ö":{"ha":685,"x_min":0,"x_max":0,"o":""},"÷":{"ha":296,"x_min":27,"x_max":262,"o":"m 27 128 q 119 221 27 220 l 170 221 q 262 128 262 220 l 262 78 q 170 -15 262 -14 l 119 -15 q 27 78 27 -14 l 27 128 m 27 465 q 119 558 27 557 l 170 558 q 262 465 262 557 l 262 415 q 170 322 262 323 l 119 322 q 27 415 27 323 l 27 465 z "},"ø":{"ha":685,"x_min":0,"x_max":0,"o":""},"ù":{"ha":718,"x_min":0,"x_max":0,"o":""},"ú":{"ha":718,"x_min":0,"x_max":0,"o":""},"û":{"ha":718,"x_min":0,"x_max":0,"o":""},"ü":{"ha":718,"x_min":0,"x_max":0,"o":""},"ý":{"ha":589,"x_min":0,"x_max":0,"o":""},"þ":{"ha":685,"x_min":0,"x_max":0,"o":""},"ÿ":{"ha":589,"x_min":0,"x_max":0,"o":""},"ı":{"ha":349,"x_min":0,"x_max":0,"o":""},"ˆ":{"ha":561,"x_min":27,"x_max":527,"o":"m 277 870 l 92 785 l 27 935 l 277 1054 l 527 935 l 462 785 l 277 870 z "},"ˇ":{"ha":694,"x_min":0,"x_max":0,"o":""},"ˉ":{"ha":694,"x_min":0,"x_max":0,"o":""},"˘":{"ha":694,"x_min":0,"x_max":0,"o":""},"˙":{"ha":296,"x_min":27,"x_max":262,"o":"m 27 1213 q 119 1305 27 1305 l 170 1305 q 262 1213 262 1305 l 262 1162 q 170 1069 262 1070 l 119 1069 q 27 1162 27 1070 l 27 1213 z "},"˚":{"ha":500,"x_min":27,"x_max":466,"o":"m 27 977 q 195 1145 27 1145 l 298 1145 q 466 977 466 1145 l 466 875 q 298 706 466 707 l 195 706 q 27 875 27 707 l 27 977 m 280 926 q 247 959 281 959 q 214 926 213 959 l 214 925 q 247 892 213 892 q 280 925 281 892 l 280 926 z "},"˛":{"ha":694,"x_min":0,"x_max":0,"o":""},"˜":{"ha":650,"x_min":27,"x_max":616,"o":"m 471 793 l 471 924 q 450 943 471 944 l 411 943 q 395 924 395 943 l 395 922 q 273 795 394 799 l 155 795 q 27 922 28 795 l 27 1085 l 172 1086 l 172 960 q 192 940 172 939 l 234 940 q 250 960 250 941 l 250 960 q 371 1088 250 1087 l 488 1088 q 616 961 615 1088 l 616 793 l 471 793 z "},"˝":{"ha":694,"x_min":0,"x_max":0,"o":""},"–":{"ha":751,"x_min":0,"x_max":0,"o":""},"†":{"ha":688,"x_min":0,"x_max":0,"o":""},"‡":{"ha":688,"x_min":0,"x_max":0,"o":""},"•":{"ha":364,"x_min":27,"x_max":330,"o":"m 27 643 q 144 761 27 760 l 212 761 q 330 643 330 760 l 330 576 q 212 458 330 458 l 144 458 q 27 576 27 458 l 27 643 z "},"…":{"ha":840,"x_min":27,"x_max":806,"o":"m 27 128 q 119 221 27 220 l 170 221 q 262 128 262 220 l 262 78 q 170 -15 262 -14 l 119 -15 q 27 78 27 -14 l 27 128 m 300 128 q 392 221 300 220 l 443 221 q 535 128 535 220 l 535 78 q 443 -15 535 -14 l 392 -15 q 300 78 300 -14 l 300 128 m 571 128 q 663 221 571 220 l 714 221 q 806 128 806 220 l 806 78 q 714 -15 806 -14 l 663 -15 q 571 78 571 -14 l 571 128 z "},"₣":{"ha":688,"x_min":0,"x_max":0,"o":""},"₤":{"ha":688,"x_min":0,"x_max":0,"o":""},"₧":{"ha":1375,"x_min":0,"x_max":0,"o":""},"€":{"ha":791,"x_min":27,"x_max":757,"o":"m 645 522 l 338 522 l 338 501 l 645 501 l 645 324 l 338 324 l 338 272 q 388 222 336 222 l 469 222 q 519 264 518 222 l 519 311 l 757 311 l 757 205 q 537 -16 757 -14 l 319 -16 q 100 205 100 -14 l 100 324 l 27 324 l 27 501 l 100 501 l 100 522 l 27 522 l 27 699 l 100 699 l 100 814 q 319 1034 100 1033 l 537 1034 q 757 826 750 1033 l 757 706 l 519 706 l 519 753 q 469 796 518 796 l 388 796 q 338 746 336 796 l 338 699 l 645 699 l 645 522 z "},"№":{"ha":1540,"x_min":0,"x_max":0,"o":""},"∂":{"ha":688,"x_min":0,"x_max":0,"o":""},"∆":{"ha":733,"x_min":0,"x_max":0,"o":""},"∏":{"ha":1027,"x_min":0,"x_max":0,"o":""},"∑":{"ha":818,"x_min":0,"x_max":0,"o":""},"−":{"ha":688,"x_min":0,"x_max":0,"o":""},"√":{"ha":688,"x_min":0,"x_max":0,"o":""},"∞":{"ha":688,"x_min":0,"x_max":0,"o":""},"∫":{"ha":451,"x_min":0,"x_max":0,"o":""},"≈":{"ha":688,"x_min":0,"x_max":0,"o":""},"≤":{"ha":688,"x_min":0,"x_max":0,"o":""},"≥":{"ha":688,"x_min":0,"x_max":0,"o":""},"":{"ha":728,"x_min":0,"x_max":0,"o":""},"":{"ha":733,"x_min":0,"x_max":0,"o":""},"À":{"ha":949,"x_min":27,"x_max":935,"o":"m 27 -13 l 361 1034 l 599 1034 l 935 -13 l 688 -13 l 644 123 l 317 123 l 274 -13 l 27 -13 m 480 633 l 382 329 l 578 329 l 480 633 m 302 1223 l 623 1361 l 695 1168 l 372 1047 l 302 1223 z "},"Á":{"ha":949,"x_min":27,"x_max":935,"o":"m 27 -13 l 361 1034 l 599 1034 l 935 -13 l 688 -13 l 644 123 l 317 123 l 274 -13 l 27 -13 m 480 633 l 382 329 l 578 329 l 480 633 m 626 1051 l 302 1173 l 374 1365 l 695 1227 l 626 1051 z "},"Â":{"ha":949,"x_min":27,"x_max":935,"o":"m 27 -13 l 361 1034 l 599 1034 l 935 -13 l 688 -13 l 644 123 l 317 123 l 274 -13 l 27 -13 m 480 633 l 382 329 l 578 329 l 480 633 m 487 1148 l 302 1063 l 237 1213 l 487 1332 l 736 1213 l 671 1063 l 487 1148 z "},"Ã":{"ha":949,"x_min":27,"x_max":935,"o":"m 27 -13 l 361 1034 l 599 1034 l 935 -13 l 688 -13 l 644 123 l 317 123 l 274 -13 l 27 -13 m 480 633 l 382 329 l 578 329 l 480 633 m 648 1071 l 648 1202 q 628 1221 648 1222 l 589 1221 q 572 1202 572 1221 l 572 1200 q 451 1073 572 1077 l 333 1073 q 205 1200 205 1073 l 205 1363 l 350 1364 l 350 1238 q 370 1218 350 1217 l 412 1218 q 427 1238 428 1219 l 427 1238 q 549 1367 428 1365 l 665 1367 q 793 1239 793 1367 l 793 1071 l 648 1071 z "},"Ä":{"ha":949,"x_min":27,"x_max":935,"o":"m 27 -13 l 361 1034 l 599 1034 l 935 -13 l 688 -13 l 644 123 l 317 123 l 274 -13 l 27 -13 m 480 633 l 382 329 l 578 329 l 480 633 m 245 1201 q 338 1294 245 1293 l 389 1294 q 481 1201 481 1293 l 481 1151 q 389 1058 481 1059 l 338 1058 q 245 1151 245 1059 l 245 1201 m 517 1201 q 610 1294 517 1293 l 661 1294 q 753 1201 753 1293 l 753 1151 q 661 1058 753 1059 l 610 1058 q 517 1151 517 1059 l 517 1201 z "},"Å":{"ha":949,"x_min":27,"x_max":935,"o":"m 27 -13 l 361 1034 l 599 1034 l 935 -13 l 688 -13 l 644 123 l 317 123 l 274 -13 l 27 -13 m 480 633 l 382 329 l 578 329 l 480 633 m 262 1196 q 431 1365 262 1364 l 533 1365 q 701 1196 701 1364 l 701 1095 q 533 926 701 927 l 431 926 q 262 1095 262 927 l 262 1196 m 515 1145 q 482 1179 516 1179 q 449 1145 448 1179 l 449 1145 q 482 1112 448 1112 q 515 1145 516 1112 l 515 1145 z "},"Æ":{"ha":1375,"x_min":27,"x_max":1341,"o":"m 471 649 l 374 351 l 569 351 l 471 649 m 690 -16 l 635 150 l 308 150 l 250 -27 l 27 46 l 353 1040 l 590 1040 l 693 726 l 693 1034 l 1341 1034 l 1341 800 l 928 800 l 928 587 l 1217 587 l 1218 352 l 928 352 l 928 218 l 1341 218 l 1341 -16 l 690 -16 z "},"È":{"ha":709,"x_min":27,"x_max":675,"o":"m 27 -16 l 27 1034 l 675 1034 l 675 800 l 262 800 l 262 627 l 552 627 l 552 393 l 262 393 l 262 218 l 675 218 l 675 -16 l 27 -16 m 168 1223 l 489 1361 l 561 1168 l 237 1047 l 168 1223 z "},"É":{"ha":709,"x_min":27,"x_max":675,"o":"m 27 -16 l 27 1034 l 675 1034 l 675 800 l 262 800 l 262 627 l 552 627 l 552 393 l 262 393 l 262 218 l 675 218 l 675 -16 l 27 -16 m 492 1051 l 168 1173 l 239 1365 l 561 1227 l 492 1051 z "},"Ê":{"ha":709,"x_min":27,"x_max":675,"o":"m 27 -16 l 27 1034 l 675 1034 l 675 800 l 262 800 l 262 627 l 552 627 l 552 393 l 262 393 l 262 218 l 675 218 l 675 -16 l 27 -16 m 352 1148 l 167 1063 l 102 1213 l 352 1332 l 602 1213 l 536 1063 l 352 1148 z "},"Ë":{"ha":709,"x_min":27,"x_max":675,"o":"m 27 -16 l 27 1034 l 675 1034 l 675 800 l 262 800 l 262 627 l 552 627 l 552 393 l 262 393 l 262 218 l 675 218 l 675 -16 l 27 -16 m 111 1201 q 203 1294 111 1293 l 254 1294 q 346 1201 346 1293 l 346 1151 q 254 1058 346 1059 l 203 1058 q 111 1151 111 1059 l 111 1201 m 382 1201 q 475 1294 382 1293 l 526 1294 q 618 1201 618 1293 l 618 1151 q 526 1058 618 1059 l 475 1058 q 382 1151 382 1059 l 382 1201 z "},"Ì":{"ha":454,"x_min":27,"x_max":420,"o":"m 106 -16 l 106 1034 l 341 1034 l 341 -16 l 106 -16 m 27 1223 l 349 1361 l 420 1168 l 97 1047 l 27 1223 z "},"Í":{"ha":454,"x_min":27,"x_max":420,"o":"m 106 -16 l 106 1034 l 341 1034 l 341 -16 l 106 -16 m 351 1051 l 27 1173 l 99 1365 l 420 1227 l 351 1051 z "},"Î":{"ha":561,"x_min":27,"x_max":527,"o":"m 172 -16 l 172 1034 l 407 1034 l 407 -16 l 172 -16 m 277 1148 l 92 1063 l 27 1213 l 277 1332 l 527 1213 l 462 1063 l 277 1148 z "},"Ï":{"ha":568,"x_min":27,"x_max":534,"o":"m 163 -16 l 163 1034 l 398 1034 l 398 -16 l 163 -16 m 27 1201 q 119 1294 27 1293 l 170 1294 q 262 1201 262 1293 l 262 1151 q 170 1058 262 1059 l 119 1058 q 27 1151 27 1059 l 27 1201 m 299 1201 q 391 1294 299 1293 l 442 1294 q 534 1201 534 1293 l 534 1151 q 442 1058 534 1059 l 391 1058 q 299 1151 299 1059 l 299 1201 z "},"Ð":{"ha":763,"x_min":23,"x_max":730,"o":"m 492 746 q 442 796 494 796 l 311 796 l 311 222 l 442 222 q 492 272 494 222 l 492 746 m 73 1034 l 510 1034 q 730 814 730 1033 l 730 205 q 510 -16 730 -14 l 73 -16 l 73 1034 m 467 621 l 467 395 l 23 395 l 23 621 l 467 621 z "},"Ñ":{"ha":813,"x_min":27,"x_max":779,"o":"m 263 1038 l 545 500 l 545 1038 l 779 1038 l 779 -17 l 551 -17 l 262 535 l 262 -17 l 27 -17 l 27 1038 l 263 1038 m 551 1071 l 551 1202 q 530 1221 551 1222 l 491 1221 q 475 1202 475 1221 l 475 1200 q 353 1073 474 1077 l 235 1073 q 107 1200 108 1073 l 107 1363 l 252 1364 l 252 1238 q 272 1218 252 1217 l 314 1218 q 330 1238 330 1219 l 330 1238 q 451 1367 330 1365 l 568 1367 q 696 1239 695 1367 l 696 1071 l 551 1071 z "},"Ò":{"ha":718,"x_min":27,"x_max":684,"o":"m 447 746 q 397 796 448 796 l 315 796 q 265 746 264 796 l 265 272 q 315 222 264 222 l 397 222 q 447 272 448 222 l 447 746 m 27 814 q 247 1034 27 1033 l 465 1034 q 684 814 684 1033 l 684 205 q 465 -16 684 -14 l 247 -16 q 27 205 27 -14 l 27 814 m 163 1223 l 485 1361 l 557 1168 l 233 1047 l 163 1223 z "},"Ó":{"ha":718,"x_min":27,"x_max":684,"o":"m 447 746 q 397 796 448 796 l 315 796 q 265 746 264 796 l 265 272 q 315 222 264 222 l 397 222 q 447 272 448 222 l 447 746 m 27 814 q 247 1034 27 1033 l 465 1034 q 684 814 684 1033 l 684 205 q 465 -16 684 -14 l 247 -16 q 27 205 27 -14 l 27 814 m 488 1051 l 163 1173 l 235 1365 l 557 1227 l 488 1051 z "},"Ô":{"ha":718,"x_min":27,"x_max":684,"o":"m 447 746 q 397 796 448 796 l 315 796 q 265 746 264 796 l 265 272 q 315 222 264 222 l 397 222 q 447 272 448 222 l 447 746 m 27 814 q 247 1034 27 1033 l 465 1034 q 684 814 684 1033 l 684 205 q 465 -16 684 -14 l 247 -16 q 27 205 27 -14 l 27 814 m 348 1148 l 163 1063 l 98 1213 l 348 1332 l 597 1213 l 532 1063 l 348 1148 z "},"Õ":{"ha":718,"x_min":27,"x_max":684,"o":"m 447 746 q 397 796 448 796 l 315 796 q 265 746 264 796 l 265 272 q 315 222 264 222 l 397 222 q 447 272 448 222 l 447 746 m 27 814 q 247 1034 27 1033 l 465 1034 q 684 814 684 1033 l 684 205 q 465 -16 684 -14 l 247 -16 q 27 205 27 -14 l 27 814 m 509 1071 l 509 1202 q 489 1221 509 1222 l 450 1221 q 433 1202 433 1221 l 433 1200 q 312 1073 433 1077 l 194 1073 q 66 1200 66 1073 l 66 1363 l 211 1364 l 211 1238 q 231 1218 211 1217 l 273 1218 q 288 1238 289 1219 l 288 1238 q 410 1367 289 1365 l 526 1367 q 654 1239 654 1367 l 654 1071 l 509 1071 z "},"Ö":{"ha":718,"x_min":27,"x_max":684,"o":"m 447 746 q 397 796 448 796 l 315 796 q 265 746 264 796 l 265 272 q 315 222 264 222 l 397 222 q 447 272 448 222 l 447 746 m 27 814 q 247 1034 27 1033 l 465 1034 q 684 814 684 1033 l 684 205 q 465 -16 684 -14 l 247 -16 q 27 205 27 -14 l 27 814 m 106 1201 q 199 1294 106 1293 l 250 1294 q 342 1201 342 1293 l 342 1151 q 250 1058 342 1059 l 199 1058 q 106 1151 106 1059 l 106 1201 m 378 1201 q 471 1294 378 1293 l 522 1294 q 614 1201 614 1293 l 614 1151 q 522 1058 614 1059 l 471 1058 q 378 1151 378 1059 l 378 1201 z "},"Ø":{"ha":944,"x_min":39,"x_max":924,"o":"m 563 746 q 513 796 564 796 l 431 796 q 381 746 380 796 l 381 272 q 431 222 380 222 l 513 222 q 563 272 564 222 l 563 746 m 143 814 q 363 1034 143 1033 l 581 1034 q 800 814 800 1033 l 800 205 q 581 -16 800 -14 l 363 -16 q 143 205 143 -14 l 143 814 m 39 -73 l 717 1180 l 924 1068 l 245 -185 l 39 -73 z "},"Ù":{"ha":718,"x_min":27,"x_max":684,"o":"m 684 1031 l 684 205 q 465 -16 684 -14 l 247 -16 q 27 205 27 -14 l 27 1031 l 265 1031 l 265 272 q 315 222 264 222 l 397 222 q 447 272 448 222 l 447 1031 l 684 1031 m 161 1223 l 482 1361 l 554 1168 l 231 1047 l 161 1223 z "},"Ú":{"ha":718,"x_min":27,"x_max":684,"o":"m 684 1031 l 684 205 q 465 -16 684 -14 l 247 -16 q 27 205 27 -14 l 27 1031 l 265 1031 l 265 272 q 315 222 264 222 l 397 222 q 447 272 448 222 l 447 1031 l 684 1031 m 485 1051 l 161 1173 l 233 1365 l 554 1227 l 485 1051 z "},"Û":{"ha":718,"x_min":27,"x_max":684,"o":"m 684 1031 l 684 205 q 465 -16 684 -14 l 247 -16 q 27 205 27 -14 l 27 1031 l 265 1031 l 265 272 q 315 222 264 222 l 397 222 q 447 272 448 222 l 447 1031 l 684 1031 m 345 1148 l 160 1063 l 95 1213 l 345 1332 l 595 1213 l 530 1063 l 345 1148 z "},"Ü":{"ha":718,"x_min":27,"x_max":684,"o":"m 684 1031 l 684 205 q 465 -16 684 -14 l 247 -16 q 27 205 27 -14 l 27 1031 l 265 1031 l 265 272 q 315 222 264 222 l 397 222 q 447 272 448 222 l 447 1031 l 684 1031 m 104 1201 q 196 1294 104 1293 l 247 1294 q 339 1201 339 1293 l 339 1151 q 247 1058 339 1059 l 196 1058 q 104 1151 104 1059 l 104 1201 m 376 1201 q 468 1294 376 1293 l 519 1294 q 611 1201 611 1293 l 611 1151 q 519 1058 611 1059 l 468 1058 q 376 1151 376 1059 l 376 1201 z "},"Ý":{"ha":873,"x_min":27,"x_max":863,"o":"m 304 1034 l 444 738 l 586 1034 l 863 1034 l 561 461 l 561 -16 l 326 -16 l 326 460 l 27 1034 l 304 1034 m 571 1051 l 247 1173 l 319 1365 l 640 1227 l 571 1051 z "},"Œ":{"ha":1130,"x_min":27,"x_max":1096,"o":"m 447 746 q 397 796 448 796 l 315 796 q 265 746 264 796 l 265 272 q 315 222 264 222 l 397 222 q 447 272 448 222 l 447 746 m 27 814 q 247 1034 27 1033 l 465 1034 q 684 814 684 1033 l 684 205 q 465 -16 684 -14 l 247 -16 q 27 205 27 -14 l 27 814 m 448 -16 l 448 1034 l 1096 1034 l 1096 800 l 683 800 l 683 587 l 973 587 l 975 352 l 683 352 l 683 218 l 1096 218 l 1096 -16 l 448 -16 z "},"«":{"ha":903,"x_min":27,"x_max":869,"o":"m 220 543 l 495 396 l 495 193 l 27 471 l 27 623 l 494 905 l 494 701 l 220 543 m 594 543 l 869 396 l 869 193 l 401 471 l 401 623 l 867 905 l 868 701 l 594 543 z "},"¬":{"ha":755,"x_min":27,"x_max":722,"o":"m 486 412 l 27 412 l 27 648 l 722 648 l 722 162 l 486 162 l 486 412 z "},"±":{"ha":626,"x_min":27,"x_max":592,"o":"m 192 629 l 27 629 l 27 863 l 192 863 l 192 1029 l 427 1029 l 427 864 l 592 864 l 592 629 l 427 629 l 427 464 l 192 464 l 192 629 m 592 438 l 592 212 l 33 212 l 33 438 l 592 438 z "},"»":{"ha":903,"x_min":27,"x_max":869,"o":"m 401 701 l 402 905 l 869 623 l 869 471 l 401 193 l 401 396 l 675 543 l 401 701 m 28 701 l 28 905 l 495 623 l 495 471 l 27 193 l 27 396 l 302 543 l 28 701 z "},"™":{"ha":568,"x_min":27,"x_max":534,"o":"m 100 794 l 100 1038 l 27 1038 l 27 1109 l 241 1109 l 241 1038 l 170 1038 l 170 794 l 100 794 m 465 794 l 465 949 l 395 795 l 326 949 l 326 794 l 256 794 l 256 1107 l 324 1107 l 395 949 l 466 1107 l 534 1107 l 534 794 l 465 794 z "}}}
